<mxfile host="app.diagrams.net" agent="Mozilla/5.0 (Windows NT 10.0; Win64; x64) AppleWebKit/537.36 (KHTML, like Gecko) Chrome/134.0.0.0 Safari/537.36" version="26.2.2">
  <diagram name="Page-1" id="QV1_HWFIFICLHjL3Q0-J">
    <mxGraphModel dx="1428" dy="1912" grid="1" gridSize="10" guides="1" tooltips="1" connect="1" arrows="1" fold="1" page="1" pageScale="1" pageWidth="827" pageHeight="1169" math="0" shadow="0">
      <root>
        <mxCell id="0" />
        <mxCell id="1" parent="0" />
        <mxCell id="GeAgQett_E_SLnkHT2Mg-6" style="edgeStyle=orthogonalEdgeStyle;rounded=0;orthogonalLoop=1;jettySize=auto;html=1;exitX=0.25;exitY=0;exitDx=0;exitDy=0;entryX=0;entryY=0.7;entryDx=0;entryDy=0;fontColor=light-dark(#48640C,#EDEDED);labelBackgroundColor=light-dark(#48640C,#EDEDED);strokeColor=light-dark(#48640C,#EDEDED);" parent="1" source="GeAgQett_E_SLnkHT2Mg-1" target="GeAgQett_E_SLnkHT2Mg-5" edge="1">
          <mxGeometry relative="1" as="geometry">
            <Array as="points">
              <mxPoint x="420" y="70" />
              <mxPoint x="420" y="-4" />
            </Array>
          </mxGeometry>
        </mxCell>
        <mxCell id="GeAgQett_E_SLnkHT2Mg-10" value="&lt;font style=&quot;font-size: 13px;&quot;&gt;QueryData&lt;/font&gt;" style="edgeLabel;html=1;align=center;verticalAlign=middle;resizable=0;points=[];fontColor=#48640C;" parent="GeAgQett_E_SLnkHT2Mg-6" vertex="1" connectable="0">
          <mxGeometry x="-0.2568" relative="1" as="geometry">
            <mxPoint x="-10" y="-3" as="offset" />
          </mxGeometry>
        </mxCell>
        <mxCell id="GeAgQett_E_SLnkHT2Mg-11" style="edgeStyle=orthogonalEdgeStyle;rounded=0;orthogonalLoop=1;jettySize=auto;html=1;exitX=0.75;exitY=0;exitDx=0;exitDy=0;entryX=1;entryY=0.7;entryDx=0;entryDy=0;strokeColor=#0000FF;" parent="1" source="GeAgQett_E_SLnkHT2Mg-1" target="GeAgQett_E_SLnkHT2Mg-5" edge="1">
          <mxGeometry relative="1" as="geometry">
            <Array as="points">
              <mxPoint x="550" y="70" />
              <mxPoint x="550" y="-4" />
            </Array>
          </mxGeometry>
        </mxCell>
        <mxCell id="GeAgQett_E_SLnkHT2Mg-12" value="&lt;font style=&quot;font-size: 13px;&quot;&gt;Write to&lt;br&gt;EnvironmentDataCollections&lt;span style=&quot;background-color: light-dark(#ffffff, var(--ge-dark-color, #121212));&quot;&gt;&amp;nbsp;&lt;/span&gt;&lt;/font&gt;" style="edgeLabel;html=1;align=center;verticalAlign=middle;resizable=0;points=[];fontColor=#0000FF;" parent="GeAgQett_E_SLnkHT2Mg-11" vertex="1" connectable="0">
          <mxGeometry x="-0.1166" relative="1" as="geometry">
            <mxPoint x="50" y="6" as="offset" />
          </mxGeometry>
        </mxCell>
        <mxCell id="GeAgQett_E_SLnkHT2Mg-1" value="&lt;font style=&quot;font-size: 14px;&quot;&gt;&lt;span&gt;ReleasePortalAPI&lt;/span&gt;&lt;/font&gt;" style="html=1;whiteSpace=wrap;fontStyle=0" parent="1" vertex="1">
          <mxGeometry x="400" y="70" width="170" height="50" as="geometry" />
        </mxCell>
        <mxCell id="GeAgQett_E_SLnkHT2Mg-3" style="edgeStyle=orthogonalEdgeStyle;rounded=0;orthogonalLoop=1;jettySize=auto;html=1;exitX=0;exitY=0.5;exitDx=0;exitDy=0;entryX=0;entryY=0.5;entryDx=0;entryDy=0;strokeColor=light-dark(#48640C,#EDEDED);" parent="1" source="GeAgQett_E_SLnkHT2Mg-2" target="GeAgQett_E_SLnkHT2Mg-1" edge="1">
          <mxGeometry relative="1" as="geometry">
            <Array as="points">
              <mxPoint x="320" y="195" />
              <mxPoint x="320" y="95" />
            </Array>
          </mxGeometry>
        </mxCell>
        <mxCell id="GeAgQett_E_SLnkHT2Mg-4" value="GetServerConfig" style="edgeLabel;html=1;align=center;verticalAlign=middle;resizable=0;points=[];fontSize=13;" parent="GeAgQett_E_SLnkHT2Mg-3" vertex="1" connectable="0">
          <mxGeometry x="-0.04" y="-1" relative="1" as="geometry">
            <mxPoint x="-1" y="-10" as="offset" />
          </mxGeometry>
        </mxCell>
        <mxCell id="GeAgQett_E_SLnkHT2Mg-8" style="edgeStyle=orthogonalEdgeStyle;rounded=0;orthogonalLoop=1;jettySize=auto;html=1;exitX=1;exitY=0.5;exitDx=0;exitDy=0;strokeColor=#0000FF;" parent="1" source="GeAgQett_E_SLnkHT2Mg-2" edge="1">
          <mxGeometry relative="1" as="geometry">
            <mxPoint x="570" y="110" as="targetPoint" />
            <Array as="points">
              <mxPoint x="630" y="195" />
              <mxPoint x="630" y="110" />
              <mxPoint x="570" y="110" />
            </Array>
          </mxGeometry>
        </mxCell>
        <mxCell id="GeAgQett_E_SLnkHT2Mg-9" value="&lt;font style=&quot;font-size: 13px;&quot;&gt;On Trigger&lt;/font&gt;&lt;div&gt;&lt;font style=&quot;&quot;&gt;&lt;span style=&quot;font-size: 13px;&quot;&gt;ReportDataCollection&lt;/span&gt;&lt;/font&gt;&lt;/div&gt;" style="edgeLabel;html=1;align=center;verticalAlign=middle;resizable=0;points=[];fontColor=#0000FF;" parent="GeAgQett_E_SLnkHT2Mg-8" vertex="1" connectable="0">
          <mxGeometry x="0.0182" y="2" relative="1" as="geometry">
            <mxPoint x="12" as="offset" />
          </mxGeometry>
        </mxCell>
        <mxCell id="GeAgQett_E_SLnkHT2Mg-2" value="HealthMonitor" style="html=1;whiteSpace=wrap;fontSize=14;" parent="1" vertex="1">
          <mxGeometry x="400" y="170" width="170" height="50" as="geometry" />
        </mxCell>
        <mxCell id="GeAgQett_E_SLnkHT2Mg-5" value="&lt;font style=&quot;font-size: 14px;&quot;&gt;Release Portal DB&lt;/font&gt;" style="shape=cylinder;whiteSpace=wrap;html=1;boundedLbl=1;backgroundOutline=1;" parent="1" vertex="1">
          <mxGeometry x="455" y="-60" width="60" height="80" as="geometry" />
        </mxCell>
        <mxCell id="GeAgQett_E_SLnkHT2Mg-14" style="edgeStyle=orthogonalEdgeStyle;rounded=0;orthogonalLoop=1;jettySize=auto;html=1;exitX=0;exitY=0.5;exitDx=0;exitDy=0;entryX=1;entryY=0.25;entryDx=0;entryDy=0;strokeColor=#66FF66;" parent="1" source="GeAgQett_E_SLnkHT2Mg-13" target="GeAgQett_E_SLnkHT2Mg-1" edge="1">
          <mxGeometry relative="1" as="geometry">
            <Array as="points">
              <mxPoint x="780" y="83" />
              <mxPoint x="675" y="83" />
            </Array>
          </mxGeometry>
        </mxCell>
        <mxCell id="GeAgQett_E_SLnkHT2Mg-15" value="&lt;font style=&quot;&quot;&gt;GetLatestEnvironment&lt;/font&gt;&lt;div&gt;&lt;font style=&quot;&quot;&gt;DataCollectionHistory&lt;/font&gt;&lt;/div&gt;" style="edgeLabel;html=1;align=center;verticalAlign=middle;resizable=0;points=[];fontColor=#66FF66;" parent="GeAgQett_E_SLnkHT2Mg-14" vertex="1" connectable="0">
          <mxGeometry x="-0.0849" y="1" relative="1" as="geometry">
            <mxPoint as="offset" />
          </mxGeometry>
        </mxCell>
        <mxCell id="GeAgQett_E_SLnkHT2Mg-17" style="edgeStyle=orthogonalEdgeStyle;rounded=0;orthogonalLoop=1;jettySize=auto;html=1;exitX=0.5;exitY=1;exitDx=0;exitDy=0;entryX=0.5;entryY=0;entryDx=0;entryDy=0;strokeColor=#66FF66;" parent="1" source="GeAgQett_E_SLnkHT2Mg-13" target="GeAgQett_E_SLnkHT2Mg-19" edge="1">
          <mxGeometry relative="1" as="geometry">
            <mxPoint x="865" y="160" as="targetPoint" />
          </mxGeometry>
        </mxCell>
        <mxCell id="GeAgQett_E_SLnkHT2Mg-18" value="&lt;font style=&quot;color: rgb(102, 255, 102);&quot;&gt;Store Parquet for upload&lt;/font&gt;" style="edgeLabel;html=1;align=center;verticalAlign=middle;resizable=0;points=[];" parent="GeAgQett_E_SLnkHT2Mg-17" vertex="1" connectable="0">
          <mxGeometry x="-0.1931" relative="1" as="geometry">
            <mxPoint as="offset" />
          </mxGeometry>
        </mxCell>
        <mxCell id="GeAgQett_E_SLnkHT2Mg-13" value="APIer" style="html=1;whiteSpace=wrap;fontSize=14;" parent="1" vertex="1">
          <mxGeometry x="780" y="60" width="170" height="50" as="geometry" />
        </mxCell>
        <mxCell id="GeAgQett_E_SLnkHT2Mg-19" value="Snowflake" style="html=1;whiteSpace=wrap;fontSize=14;" parent="1" vertex="1">
          <mxGeometry x="780" y="190" width="170" height="50" as="geometry" />
        </mxCell>
        <mxCell id="GeAgQett_E_SLnkHT2Mg-21" style="edgeStyle=orthogonalEdgeStyle;rounded=0;orthogonalLoop=1;jettySize=auto;html=1;exitX=0.25;exitY=0;exitDx=0;exitDy=0;entryX=0.75;entryY=0;entryDx=0;entryDy=0;strokeColor=#66FF66;" parent="1" source="GeAgQett_E_SLnkHT2Mg-13" target="GeAgQett_E_SLnkHT2Mg-13" edge="1">
          <mxGeometry relative="1" as="geometry">
            <Array as="points">
              <mxPoint x="823" y="20" />
              <mxPoint x="907" y="20" />
            </Array>
          </mxGeometry>
        </mxCell>
        <mxCell id="GeAgQett_E_SLnkHT2Mg-22" value="&lt;font style=&quot;color: rgb(102, 255, 102); font-size: 13px;&quot;&gt;Get e2Snowflake.xml&lt;/font&gt;&lt;div&gt;&lt;font style=&quot;color: rgb(102, 255, 102); font-size: 13px;&quot;&gt;config file to determine&lt;/font&gt;&lt;/div&gt;&lt;div&gt;&lt;font style=&quot;color: rgb(102, 255, 102); font-size: 13px;&quot;&gt;environments Datacollection&lt;/font&gt;&lt;/div&gt;&lt;div&gt;&lt;font style=&quot;color: rgb(102, 255, 102); font-size: 13px;&quot;&gt;to grab&lt;/font&gt;&lt;/div&gt;" style="edgeLabel;html=1;align=center;verticalAlign=middle;resizable=0;points=[];" parent="GeAgQett_E_SLnkHT2Mg-21" vertex="1" connectable="0">
          <mxGeometry x="-0.1697" y="1" relative="1" as="geometry">
            <mxPoint x="14" y="-39" as="offset" />
          </mxGeometry>
        </mxCell>
      </root>
    </mxGraphModel>
  </diagram>
</mxfile>
